<?xml version="1.0" standalone="no"?>
<!DOCTYPE svg PUBLIC "-//W3C//DTD SVG 20010904//EN"
 "http://www.w3.org/TR/2001/REC-SVG-20010904/DTD/svg10.dtd">
<svg version="1.0" xmlns="http://www.w3.org/2000/svg"
 width="206.000000pt" height="206.000000pt" viewBox="0 0 206.000000 206.000000"
 preserveAspectRatio="xMidYMid meet">
<metadata>
Created by potrace 1.11, written by Peter Selinger 2001-2013
</metadata>
<g transform="translate(0.000000,206.000000) scale(0.100000,-0.100000)"
fill="#000000" stroke="none">
<path d="M863 1683 c-81 -47 -164 -94 -183 -105 -19 -11 -97 -56 -173 -100
l-137 -80 -1 -52 c0 -28 -1 -194 -1 -368 -1 -313 3 -348 32 -348 4 0 59 -30
121 -66 133 -78 127 -74 332 -192 l157 -90 113 65 c61 36 132 77 157 91 25 14
56 32 70 41 14 10 36 22 50 29 14 6 43 23 65 37 22 14 47 28 55 32 9 5 41 23
73 41 46 27 57 38 58 60 0 15 1 182 1 372 l1 345 -107 62 c-58 34 -107 61
-107 60 -1 -1 -2 -167 -3 -369 -1 -202 -3 -369 -6 -371 -3 -2 -81 -48 -175
-102 -93 -53 -186 -108 -206 -120 l-36 -24 -215 125 -215 124 0 245 0 245 208
120 c114 66 213 120 218 120 11 0 33 -12 138 -74 34 -20 65 -36 70 -36 5 0 9
54 8 121 l-1 121 -106 63 -106 63 -149 -85z"/>
<path d="M895 1209 l-100 -59 0 -120 c-1 -67 2 -125 5 -129 6 -10 86 -57 165
-97 l51 -26 99 58 c55 32 102 62 106 66 6 9 5 246 -2 251 -19 15 -207 117
-215 116 -5 0 -54 -27 -109 -60z"/>
</g>
</svg>
