<?xml version="1.0" standalone="no"?>
<!DOCTYPE svg PUBLIC "-//W3C//DTD SVG 20010904//EN"
 "http://www.w3.org/TR/2001/REC-SVG-20010904/DTD/svg10.dtd">
<svg version="1.0" xmlns="http://www.w3.org/2000/svg"
 width="512.000000pt" height="512.000000pt" viewBox="0 0 512.000000 512.000000"
 preserveAspectRatio="xMidYMid meet">
<metadata>
Created by potrace 1.11, written by Peter Selinger 2001-2013
</metadata>
<g transform="translate(0.000000,512.000000) scale(0.100000,-0.100000)"
fill="#000000" stroke="none">
<path d="M865 3133 c-154 -90 -294 -170 -312 -178 -17 -8 -35 -20 -39 -26 -10
-16 -8 -739 2 -749 5 -5 140 -83 299 -175 160 -92 300 -173 311 -180 20 -13
42 -2 265 127 134 77 260 149 279 160 109 62 120 71 121 91 0 12 1 179 1 372
l1 350 -106 62 c-65 38 -107 57 -109 50 -3 -7 -4 -172 -4 -367 1 -313 -1 -356
-15 -367 -37 -28 -400 -233 -412 -233 -7 0 -34 14 -60 30 -26 17 -49 30 -51
30 -2 0 -65 36 -141 80 -76 44 -139 80 -142 80 -2 0 -10 6 -17 13 -10 9 -13
73 -13 255 l0 242 81 47 c45 26 90 52 101 58 11 6 68 39 127 73 59 34 111 62
117 62 5 0 52 -25 105 -55 52 -30 99 -55 103 -55 5 0 8 54 8 121 l0 121 -85
50 c-47 27 -96 56 -110 62 -23 12 -45 1 -305 -151z"/>
<path d="M2323 2936 c-3 -5 -6 -58 -6 -118 0 -96 -2 -108 -16 -102 -91 38
-207 -12 -242 -105 -17 -43 -12 -128 8 -163 34 -59 84 -90 156 -95 73 -6 162
17 175 45 9 19 8 529 -1 538 -10 10 -68 11 -74 0z m-22 -300 c12 -9 15 -32 16
-104 0 -92 0 -94 -26 -104 -34 -13 -88 -4 -114 19 -62 55 -46 173 28 204 23 9
73 2 96 -15z"/>
<path d="M3534 2942 c-21 -3 -21 -6 -22 -293 l-1 -289 45 0 44 0 -2 292 c-3
322 2 300 -64 290z"/>
<path d="M3702 2874 c-18 -12 -22 -23 -18 -46 5 -35 20 -48 55 -48 48 0 69 67
29 94 -28 20 -38 20 -66 0z"/>
<path d="M2910 2781 l0 -60 -32 -3 c-29 -3 -33 -7 -36 -35 -3 -32 -2 -33 32
-33 l36 0 0 -145 0 -145 43 0 42 0 0 138 c0 81 4 140 10 144 5 4 26 8 45 8 32
0 35 2 35 30 0 33 -25 47 -65 37 -22 -6 -22 -5 -24 68 l-1 50 -42 3 -43 3 0
-60z"/>
<path d="M1035 2739 l-100 -59 0 -120 c-1 -67 2 -124 5 -129 7 -10 199 -121
210 -121 5 0 55 27 111 60 l104 60 0 125 c1 125 1 126 -24 139 -14 7 -62 34
-106 60 -44 25 -84 46 -90 45 -5 0 -55 -27 -110 -60z"/>
<path d="M2553 2718 c-36 -8 -43 -13 -43 -32 0 -37 22 -49 67 -37 76 20 133
-4 133 -57 0 -19 -4 -23 -17 -17 -125 52 -247 -13 -227 -122 8 -41 61 -90 109
-99 53 -10 135 0 178 21 l39 18 -4 131 c-3 112 -6 135 -23 158 -34 44 -115 58
-212 36z m135 -209 c16 -6 22 -17 22 -38 0 -35 -22 -51 -69 -51 -66 0 -102 32
-80 71 19 37 60 42 127 18z"/>
<path d="M3205 2722 c-59 -14 -65 -19 -53 -52 9 -28 14 -31 37 -24 69 18 150
6 152 -24 3 -46 -5 -59 -25 -42 -26 21 -119 16 -159 -9 -79 -49 -73 -157 12
-200 49 -26 168 -23 223 4 l37 18 0 114 c1 176 -24 216 -137 219 -37 0 -76 -1
-87 -4z m108 -208 c15 -3 27 -9 28 -13 10 -67 -2 -81 -69 -81 -53 0 -87 27
-79 62 7 27 48 50 77 43 8 -2 27 -7 43 -11z"/>
<path d="M3988 2720 c-87 -27 -130 -83 -134 -174 -3 -63 11 -102 50 -144 46
-51 123 -67 176 -37 37 21 38 19 34 -32 -6 -71 -39 -97 -112 -90 -29 3 -64 13
-77 21 -23 15 -25 15 -40 -13 -22 -44 -20 -48 34 -66 141 -46 255 -1 278 111
6 31 9 269 4 379 -2 39 -141 68 -213 45z m121 -74 c4 -3 6 -45 6 -95 -1 -103
-9 -118 -68 -128 -31 -5 -40 -1 -66 24 -83 83 -23 225 88 208 18 -3 36 -7 40
-9z"/>
<path d="M4418 2711 c-31 -17 -38 -18 -38 -6 0 11 -12 15 -45 15 l-45 0 0
-181 0 -180 43 3 42 3 2 125 c2 106 6 127 20 138 44 32 107 26 119 -11 5 -12
8 -74 8 -137 l1 -115 43 -3 c48 -4 44 -15 44 123 0 173 0 173 -30 206 -38 42
-108 50 -164 20z"/>
<path d="M3690 2540 l0 -180 44 0 43 0 1 180 0 180 -44 0 -44 0 0 -180z"/>
</g>
</svg>
