<svg xmlns="http://www.w3.org/2000/svg" viewBox="0 0 362.09 44.19"><defs><style>.cls-1{fill:#fff;}</style></defs><g id="Layer_2" data-name="Layer 2"><g id="Layer_1-2" data-name="Layer 1"><path class="cls-1" d="M66.08,29.64a9.25,9.25,0,0,1-6.77,2.49A9.08,9.08,0,0,1,59.72,14a9.41,9.41,0,0,1,5.85,2L64,19a6.44,6.44,0,0,0-4.15-1.66c-2.75,0-5.3,2-5.3,5.74,0,3.37,2.34,5.75,5.3,5.75a6.62,6.62,0,0,0,4.9-2Z"/><path class="cls-1" d="M76.82,32.13a9.08,9.08,0,1,1,9.29-9.05A9.07,9.07,0,0,1,76.82,32.13Zm5-9.05c0-3.43-2.25-5.74-5-5.74-3,0-5.17,2.31-5.17,5.84a5.32,5.32,0,0,0,5.07,5.61C79.85,28.79,81.86,26.58,81.86,23.08Z"/><path class="cls-1" d="M100.83,31.62V22.27c0-3-.55-4.76-3.33-4.76a5.82,5.82,0,0,0-4,2V31.62h-4V14.45h4v1.76A8.39,8.39,0,0,1,99.06,14c3.74,0,5.78,1.87,5.78,6.19V31.62Z"/><path class="cls-1" d="M110.52,31.62V17.74h-2.89V14.48h2.89V10.64a8.18,8.18,0,0,1,1.56-5.24,6.81,6.81,0,0,1,5.17-2,9.11,9.11,0,0,1,3.91.89l-1.56,3a4.61,4.61,0,0,0-2.11-.51c-2,0-3,1.4-3,3.81v3.91h4.31v3.26H114.5V31.62Zm10.78-22a2.57,2.57,0,1,1,5.13,0,2.57,2.57,0,1,1-5.13,0Zm.51,22V14.45h4V31.62Z"/><path class="cls-1" d="M142.41,3.74h4V30a14,14,0,0,1-7.51,2.15c-4.83,0-9.45-3-9.45-8.88,0-5.51,3.7-9.28,9-9.28a6.87,6.87,0,0,1,4,1.16Zm0,15.09a5.47,5.47,0,0,0-3.88-1.53c-2.95,0-4.86,2.42-4.86,5.95a5.29,5.29,0,0,0,5.24,5.54,6.58,6.58,0,0,0,3.5-.88Z"/><path class="cls-1" d="M166.55,29.85a11.76,11.76,0,0,1-7.24,2.28c-5.68,0-9.49-3.54-9.49-9s3.61-9.18,9-9.18c5.58,0,8.36,4.15,8.36,8.91v1.66H154c.24,2.21,2.25,4.25,6,4.25a8.36,8.36,0,0,0,5.3-1.8ZM163,21.31a4.13,4.13,0,0,0-4.25-4.18A4.57,4.57,0,0,0,154,21.31Z"/><path class="cls-1" d="M181.89,31.62V22.27c0-3-.55-4.76-3.34-4.76a5.79,5.79,0,0,0-3.94,2V31.62h-4V14.45h4v1.76A8.37,8.37,0,0,1,180.12,14c3.74,0,5.78,1.87,5.78,6.19V31.62Z"/><path class="cls-1" d="M191.78,31.62V17.74h-3.23V14.48h3.23V8.6h4v5.88H200v3.26h-4.22V31.62Z"/><path class="cls-1" d="M202.32,8.9a2.57,2.57,0,1,1,5.13,0,2.57,2.57,0,1,1-5.13,0Zm.54,22.72V14.45h4V31.62Z"/><path class="cls-1" d="M225.68,29.81c-1.33,1.23-4.32,2.32-7.58,2.32-5.61,0-8-3.2-8-6.09s2.51-5.61,6.73-5.61a7.76,7.76,0,0,1,5,1.53V20c0-1.63-.89-2.65-3.78-2.65a12.3,12.3,0,0,0-4.79,1L212,15.36A14.81,14.81,0,0,1,218.5,14c5.68,0,7.18,2.69,7.18,6.83ZM221.84,25a6.53,6.53,0,0,0-4.08-1.46c-2.28,0-3.47,1.32-3.47,2.65s1.19,2.72,3.84,2.72a7.65,7.65,0,0,0,3.71-.92Z"/><path class="cls-1" d="M229.89,31.62V3.74h4V31.62Z"/><path class="cls-1" d="M246.15,8.9a2.57,2.57,0,1,1,5.13,0,2.57,2.57,0,1,1-5.13,0Zm.54,22.72V14.45h4V31.62Z"/><path class="cls-1" d="M266.55,31.62V22.27c0-3-.55-4.76-3.34-4.76a5.79,5.79,0,0,0-3.94,2V31.62h-4V14.45h4v1.76A8.37,8.37,0,0,1,264.78,14c3.74,0,5.78,1.87,5.78,6.19V31.62Z"/><path class="cls-1" d="M274.84,27a7.71,7.71,0,0,0,4.76,2.07c1.57,0,2.55-.85,2.55-2,0-3.16-7.58-3.54-7.58-8.3,0-2.58,2.24-4.93,6-4.93a9,9,0,0,1,5.61,1.94l-1.49,2.79A5.68,5.68,0,0,0,281,17c-1.29,0-2.24.72-2.24,1.74,0,2.85,7.44,3,7.44,8.22,0,3.06-2.51,5.21-6.42,5.21a10.25,10.25,0,0,1-6.46-2.25Z"/><path class="cls-1" d="M289.33,8.9a2.57,2.57,0,1,1,5.13,0,2.57,2.57,0,1,1-5.13,0Zm.54,22.72V14.45h4V31.62Z"/><path class="cls-1" d="M310.2,30.09a7,7,0,0,1-4.66,2c-4.08,0-8.05-3.44-8.05-9.08,0-5.92,4.48-9.08,9.45-9.08a14,14,0,0,1,7.27,1.77V32.43c0,6.5-4.28,8.4-8.26,8.4a14.7,14.7,0,0,1-7.75-2.07l1.67-3.06a10.65,10.65,0,0,0,6,1.8c2.31,0,4.35-1.09,4.35-4.52Zm0-12.11a7.82,7.82,0,0,0-3.13-.71c-2.78,0-5.37,1.66-5.37,5.78,0,2.45,1.4,5.71,4.59,5.71a4.52,4.52,0,0,0,3.91-2.07Z"/><path class="cls-1" d="M329.89,31.62V22.27c0-3-.55-4.76-3.33-4.76a5.82,5.82,0,0,0-3.95,2V31.62h-4V3.74h4V16.21A8.39,8.39,0,0,1,328.12,14c3.74,0,5.78,1.87,5.78,6.19V31.62Z"/><path class="cls-1" d="M339.78,31.62V17.74h-3.23V14.48h3.23V8.6h4v5.88H348v3.26h-4.22V31.62Z"/><path class="cls-1" d="M350.7,27a7.71,7.71,0,0,0,4.76,2.07c1.56,0,2.55-.85,2.55-2,0-3.16-7.59-3.54-7.59-8.3,0-2.58,2.25-4.93,6-4.93A9,9,0,0,1,362,15.84l-1.5,2.79A5.65,5.65,0,0,0,356.88,17c-1.29,0-2.24.72-2.24,1.74,0,2.85,7.45,3,7.45,8.22,0,3.06-2.52,5.21-6.43,5.21a10.27,10.27,0,0,1-6.46-2.25Z"/><path class="cls-1" d="M19.14,0,0,11.05V33.14l19.14,11,19.13-11V11.05Zm0,14.73-6.38,3.68v7.37l6.38,3.68L31.89,22.1v7.36L19.14,36.83,6.38,29.46V14.73L19.14,7.37l12.75,7.36h0l-6.38,3.68Z"/></g></g></svg>