<svg xmlns="http://www.w3.org/2000/svg" viewBox="0 0 157.89 104.12"><defs><style>.cls-1{fill:#111c4e;}</style></defs><g id="Layer_2" data-name="Layer 2"><g id="Layer_1-2" data-name="Layer 1"><path class="cls-1" d="M75,92.82c-31.2,2.88-63.72-1.66-68.27-26C4.5,54.76,10,42,17.25,34.09V29.86C4.16,41.34-2.93,55.86,1.15,73c5.22,22,33.12,34.46,75.72,30.33,16.87-1.64,38.92-7.06,54.26-15.49v-12C117.21,84.19,94.18,91,75,92.82Zm82.19-63.24C149.79-6.56,79.64-8.85,34.41,18.68v3C79.59-1.5,143.66-1.36,149.49,31.92c2,11-4.24,22.48-15.32,29.09v8.64C147.5,64.76,161.17,48.94,157.19,29.58Z"/><path class="cls-1" d="M128.61,24.31h-8.18V60.75c0,4.27,2.06,8,8.18,8.57Z"/><path class="cls-1" d="M31.2,37.62H23v23.8c0,4.29,2.07,8,8.2,8.58Z"/><rect class="cls-1" x="23.01" y="25.42" width="8.17" height="7.75"/><path class="cls-1" d="M80.19,69.62c-6.62,0-9.42-4.6-9.42-9.14V28.88h8.11v8.74H85v6.55H78.88V60c0,1.85.88,2.88,2.8,2.88H85v6.76h-4.8"/><path class="cls-1" d="M95.12,56.15c0,4.15,2.59,7.2,7.18,7.2a9.14,9.14,0,0,0,7.45-3.05l5,4.78a16,16,0,0,1-12.52,5.1c-7.76,0-15.19-4.23-15.19-16.58,0-10.56,6.49-16.53,15-16.53s13.64,7,13.64,16.16v2.92H95.12m6.59-12.37a6.24,6.24,0,0,0-5.82,3.36,8.48,8.48,0,0,0-.77,3.49h12.49C107.45,47.14,105.87,43.78,101.71,43.78Z"/><path class="cls-1" d="M53.23,44.17c2.38,0,3.36,1.17,3.36,3.08V69.67H64.7V47.2c0-4.55-2.42-9.57-9.54-9.57H38.4V69.67h8.12V44.17Z"/><path class="cls-1" d="M137.41,30.82a3.26,3.26,0,0,1,0-6.51,3.26,3.26,0,1,1,0,6.51Zm0-6a2.71,2.71,0,1,0,2.72,2.71A2.74,2.74,0,0,0,137.41,24.86Zm1.44,4.66h-.61a.13.13,0,0,1-.12-.08L137.3,28a.27.27,0,0,0-.12-.06h-.37v1.39a.14.14,0,0,1-.14.15h-.55a.15.15,0,0,1-.14-.15V25.85c0-.2.07-.29.25-.31s.71-.05,1-.05c1,0,1.61.3,1.61,1.24v.07a1,1,0,0,1-.73,1L139,29.3a.17.17,0,0,1,0,.1C139,29.46,139,29.52,138.85,29.52Zm-.79-2.79c0-.39-.24-.52-.76-.52h-.52v1.12l.52,0c.52,0,.76-.18.76-.55Z"/></g></g></svg>