<svg xmlns="http://www.w3.org/2000/svg" viewBox="0 0 999.71 999.52"><title>logo_white</title><path d="M415.56,147.89A30.35,30.35,0,0,0,437,169.3l63.71,17.08a30.34,30.34,0,0,0,29.24-7.85l46.64-46.63a30.36,30.36,0,0,0,7.84-29.25L567.32,39a30.36,30.36,0,0,0-21.41-21.41L482.21.47A30.3,30.3,0,0,0,453,8.3L406.32,54.94a30.4,30.4,0,0,0-7.84,29.25Zm103.2,19.49a14.48,14.48,0,0,1-14,3.76l-63-16.89,52-52,71.09,19ZM541.83,32.77A14.53,14.53,0,0,1,552.08,43L569,106,497.88,87,478.83,15.9ZM417.48,66.09,463.59,20l19.05,71.08-52,52-16.88-63a14.56,14.56,0,0,1,3.76-14" transform="translate(-0.38 0.56)" style="fill:#fff"/><path d="M622.8,355.13a30.34,30.34,0,0,0,21.41,21.41l63.7,17.07a30.31,30.31,0,0,0,29.25-7.83l46.63-46.64a30.36,30.36,0,0,0,7.84-29.25l-17.07-63.7a30.34,30.34,0,0,0-21.41-21.41L689.44,207.7a30.38,30.38,0,0,0-29.24,7.84l-46.64,46.64a30.36,30.36,0,0,0-7.83,29.25ZM726,374.62a14.5,14.5,0,0,1-14,3.75L649,361.5l52-52.05,71.09,19.05ZM749.06,240h0a14.53,14.53,0,0,1,10.25,10.26l16.88,63-71.08-19-19-71.09ZM624.71,273.33l46.12-46.12,19,71.09-52,52-16.88-63a14.55,14.55,0,0,1,3.75-14" transform="translate(-0.38 0.56)" style="fill:#fff"/><path d="M170.24,436a30.36,30.36,0,0,0-21.41-21.42L85.12,397.55a30.38,30.38,0,0,0-29.25,7.84L9.24,452A30.34,30.34,0,0,0,1.4,481.27L18.47,545a30.37,30.37,0,0,0,21.42,21.42l63.69,17.06a30.31,30.31,0,0,0,29.25-7.83L179.48,529a30.4,30.4,0,0,0,7.83-29.25Zm-25.5-6.18h0A14.5,14.5,0,0,1,155,440.11l16.88,63-71.09-19.05L81.75,413ZM16.64,477.19a14.54,14.54,0,0,1,3.75-14l46.12-46.12,19,71.09-52,52Zm105,87.27a14.48,14.48,0,0,1-14,3.76l-63-16.88,52-52,71.09,19.05Z" transform="translate(-0.38 0.56)" style="fill:#fff"/><path d="M525.86,999a30.35,30.35,0,0,0,21.45-8.86L594,943.46a30.39,30.39,0,0,0,7.84-29.24l-17.08-63.71a30.37,30.37,0,0,0-21.4-21.41L499.6,812a30.35,30.35,0,0,0-29.24,7.83L423.72,866.5a30.38,30.38,0,0,0-7.84,29.25L433,959.45a30.37,30.37,0,0,0,21.41,21.42l63.71,17.07a30,30,0,0,0,7.79,1m10.29-20a14.48,14.48,0,0,1-14,3.76l-63-16.88,52-52,71.08,19.05Zm23.07-134.61a14.56,14.56,0,0,1,10.26,10.26l16.88,63-71.09-19-19-71.09Zm-128.1,47.34a14.56,14.56,0,0,1,3.75-14L481,831.54,500,902.63l-52,52Z" transform="translate(-0.38 0.56)" style="fill:#fff"/><path d="M310.83,790.7a30,30,0,0,0,7.79,1,30.41,30.41,0,0,0,21.46-8.86l46.63-46.63A30.4,30.4,0,0,0,394.55,707l-17.08-63.71a30.35,30.35,0,0,0-21.4-21.41l-63.71-17.07a30.36,30.36,0,0,0-29.25,7.84l-46.63,46.63a30.38,30.38,0,0,0-7.84,29.25l17.07,63.7a30.37,30.37,0,0,0,21.41,21.42Zm18.09-19a14.54,14.54,0,0,1-14,3.76l-63-16.89,52-52L375,725.59ZM352,637.1h0a14.54,14.54,0,0,1,10.25,10.25l16.88,63L308,691.3l-19-71.08Zm-128.1,47.33a14.53,14.53,0,0,1,3.75-14l46.12-46.12,19.05,71.09-52,52Z" transform="translate(-0.38 0.56)" style="fill:#fff"/><path d="M238.42,367.85l63.71,17.07a30.05,30.05,0,0,0,7.8,1,30.38,30.38,0,0,0,21.45-8.86L378,330.44a30.38,30.38,0,0,0,7.83-29.25l-17.07-63.7a30.38,30.38,0,0,0-21.41-21.41L283.66,199a30.32,30.32,0,0,0-29.24,7.84l-46.64,46.63a30.39,30.39,0,0,0-7.84,29.25L217,346.43a30.41,30.41,0,0,0,21.41,21.42m81.81-1.92a14.54,14.54,0,0,1-14,3.75l-63-16.88,52-52,71.1,19.05Zm23-134.61h0a14.52,14.52,0,0,1,10.25,10.25l16.89,63-71.1-19-19-71.09ZM218.93,264.63l46.12-46.11,19.05,71.09-52,52-16.88-63a14.56,14.56,0,0,1,3.75-14" transform="translate(-0.38 0.56)" style="fill:#fff"/><path d="M783.26,652a30.34,30.34,0,0,0-21.41-21.41l-63.71-17.07a30.38,30.38,0,0,0-29.25,7.84L622.26,668a30.35,30.35,0,0,0-7.84,29.24l17.07,63.72a30.38,30.38,0,0,0,21.41,21.4l63.71,17.07a30.27,30.27,0,0,0,29.24-7.84l46.64-46.63a30.37,30.37,0,0,0,7.84-29.25Zm-25.5-6.17h0A14.52,14.52,0,0,1,768,656.05l16.88,63-71.08-19-19.05-71.08Zm-128.1,47.32a14.55,14.55,0,0,1,3.75-14L679.53,633l19.05,71.09-52,52Zm105,87.28a14.52,14.52,0,0,1-14,3.76l-63-16.89,52-52,71.09,19Z" transform="translate(-0.38 0.56)" style="fill:#fff"/><path d="M554.61,423.32,490.9,406.25a30.35,30.35,0,0,0-29.24,7.84L415,460.72A30.38,30.38,0,0,0,407.18,490l17.07,63.7a30.41,30.41,0,0,0,21.41,21.42l63.71,17.06a30.29,30.29,0,0,0,29.24-7.83l46.64-46.64a30.38,30.38,0,0,0,7.84-29.25L576,444.73a30.4,30.4,0,0,0-21.41-21.41m-4.09,15.24h0a14.52,14.52,0,0,1,10.25,10.26l16.88,63-71.09-19.05-19-71.08Zm-128.1,47.33a14.59,14.59,0,0,1,3.75-14l46.12-46.11,19,71.08-52,52Zm105,87.28a14.53,14.53,0,0,1-14,3.75l-63-16.88,52-52,71.09,19Z" transform="translate(-0.38 0.56)" style="fill:#6cb2e3"/><path d="M830.23,562.39a30.38,30.38,0,0,0,21.41,21.41l63.7,17.06A30.31,30.31,0,0,0,944.59,593l46.63-46.64a30.35,30.35,0,0,0,7.84-29.25L982,453.44A30.36,30.36,0,0,0,960.58,432L896.87,415a30.34,30.34,0,0,0-29.24,7.84L821,469.43a30.37,30.37,0,0,0-7.83,29.25Zm103.2,19.48a14.48,14.48,0,0,1-14,3.76l-63-16.88,52.05-52,71.08,19Zm23.06-134.6h0a14.5,14.5,0,0,1,10.25,10.26l16.88,63-71.08-19-19-71.08ZM832.14,480.58l46.12-46.11,19,71.08-52,52.05-16.88-63a14.56,14.56,0,0,1,3.75-14" transform="translate(-0.38 0.56)" style="fill:#fff"/></svg>