<svg xmlns="http://www.w3.org/2000/svg" viewBox="0 0 182.26 46.2"><defs><style>.cls-1{fill:#fff;}</style></defs><g id="Layer_2" data-name="Layer 2"><g id="Layer_1-2" data-name="Layer 1"><path class="cls-1" d="M66.6,3.62h4.21V31.19a14.75,14.75,0,0,1-7.89,2.25c-5.07,0-9.93-3.18-9.93-9.32,0-5.79,3.9-9.75,9.43-9.75a7.29,7.29,0,0,1,4.18,1.21Zm0,15.86a5.76,5.76,0,0,0-4.07-1.61c-3.11,0-5.11,2.53-5.11,6.25a5.56,5.56,0,0,0,5.5,5.82A6.88,6.88,0,0,0,66.6,29Z"/><path class="cls-1" d="M90.35,31c-1.4,1.29-4.54,2.43-8,2.43-5.89,0-8.39-3.36-8.39-6.39s2.64-5.9,7.07-5.9c1.82,0,4,.47,5.25,1.61V20.65c0-1.71-.93-2.78-4-2.78a13.21,13.21,0,0,0-5,1L76,15.83a15.42,15.42,0,0,1,6.78-1.46c6,0,7.54,2.82,7.54,7.18Zm-4-5A6.79,6.79,0,0,0,82,24.44c-2.4,0-3.65,1.39-3.65,2.78s1.25,2.86,4,2.86a8.07,8.07,0,0,0,3.89-1Z"/><path class="cls-1" d="M96.49,32.9V18.33h-3.4V14.9h3.4V8.73h4.21V14.9h4.43v3.43H100.7V32.9Z"/><path class="cls-1" d="M122.52,31c-1.39,1.29-4.54,2.43-8,2.43-5.9,0-8.4-3.36-8.4-6.39s2.65-5.9,7.07-5.9c1.83,0,4,.47,5.25,1.61V20.65c0-1.71-.92-2.78-4-2.78a13.21,13.21,0,0,0-5,1l-1.28-3.07A15.42,15.42,0,0,1,115,14.37c6,0,7.54,2.82,7.54,7.18Zm-4-5a6.79,6.79,0,0,0-4.28-1.53c-2.39,0-3.64,1.39-3.64,2.78s1.25,2.86,4,2.86a8,8,0,0,0,3.89-1Z"/><path class="cls-1" d="M127,32.9V3.62h4.21V32.9Z"/><path class="cls-1" d="M135.44,9.05a2.7,2.7,0,1,1,5.4,0,2.7,2.7,0,1,1-5.4,0ZM136,32.9v-18h4.21v18Z"/><path class="cls-1" d="M157.37,31.3a7.26,7.26,0,0,1-4.89,2.14c-4.29,0-8.47-3.61-8.47-9.54,0-6.21,4.72-9.53,9.93-9.53a14.69,14.69,0,0,1,7.64,1.86V33.76c0,6.82-4.5,8.82-8.67,8.82a15.47,15.47,0,0,1-8.15-2.18l1.75-3.21a11.27,11.27,0,0,0,6.29,1.89c2.43,0,4.57-1.14,4.57-4.75Zm0-12.72a8.1,8.1,0,0,0-3.29-.75c-2.92,0-5.64,1.75-5.64,6.07,0,2.57,1.47,6,4.82,6a4.74,4.74,0,0,0,4.11-2.18Z"/><path class="cls-1" d="M178.05,32.9V23.08c0-3.14-.58-5-3.5-5a6.13,6.13,0,0,0-4.15,2.07V32.9h-4.21v-18h4.21v1.86a8.75,8.75,0,0,1,5.79-2.36c3.93,0,6.07,2,6.07,6.5v12Z"/><polygon class="cls-1" points="13.34 19.25 13.34 26.95 20 30.8 26.67 26.95 26.67 19.25 20 15.4 13.34 19.25"/><polygon class="cls-1" points="33.34 7.7 33.34 15.4 33.34 30.8 20 38.5 6.67 30.8 6.67 15.4 20 7.7 26.67 11.55 26.67 3.85 20 0 0 11.55 0 34.65 20 46.2 40.01 34.65 40.01 11.55 33.34 7.7"/></g></g></svg>