<svg xmlns="http://www.w3.org/2000/svg" viewBox="0 0 335.55 94.4"><defs><style>.cls-1{fill:#111c4e;}</style></defs><g id="Layer_2" data-name="Layer 2"><g id="Layer_1-2" data-name="Layer 1"><path class="cls-1" d="M221.66,37.89a20.75,20.75,0,0,0-6.79-1.31c-2.63,0-4.6.65-4.6,3.06,0,5.48,14,2.19,14,13.36,0,7.67-6.14,10.52-13.15,10.52a33.53,33.53,0,0,1-9.41-1.32l.43-6.57a32,32,0,0,0,8.55,1.54c2.62,0,4.81-.88,4.81-3.29,0-5.91-14-2.19-14-13.36,0-7,5.91-9.86,12.48-9.86A26.1,26.1,0,0,1,222.75,32Zm-25.85,0A20.7,20.7,0,0,0,189,36.58c-2.63,0-4.6.65-4.6,3.06,0,5.48,14,2.19,14,13.36,0,7.67-6.13,10.52-13.14,10.52a33.6,33.6,0,0,1-9.42-1.32l.66-6.57a32,32,0,0,0,8.54,1.54c2.63,0,4.82-.88,4.82-3.29,0-5.91-14-2.19-14-13.36,0-7,5.91-9.86,12.48-9.86a28.68,28.68,0,0,1,9,1.32Zm130.1-7.45c6.14,0,9.64,3.29,9.64,10.52V62.64h-8.1V42.49c0-3.28-.88-5.47-4.38-5.47s-6.57,3.06-6.57,8.54V62.64h-7.89V42.49c0-3.06-.87-5.47-4.38-5.47-3.72,0-6.35,3.28-6.35,8.76V62.42h-8.32V31.1c5.47-.66,7.44,1.54,7.66,5a11,11,0,0,1,9.86-5.7c5.69,0,7.88,3.07,8.76,6.14a10.7,10.7,0,0,1,10.07-6.14Zm-166.46.66c-1.75,9.42-6.35,24.1-9.2,31.54h-8.54l-6.13-21h-.22l-6.13,21h-8.55c-2.84-7.23-7.66-22.56-9.19-31.54h8.1l5.26,21.69h.22l6.35-21.69h8.1l6.13,21.69h.66l5.48-21.69Zm-52.56,6.79a20.57,20.57,0,0,0-6.57-1.31c-2.63,0-4.39.65-4.39,3.06,0,5.48,14,2.19,14,13.36,0,7.67-6.13,10.52-13.14,10.52a33.65,33.65,0,0,1-9.42-1.32l.44-6.57a32,32,0,0,0,8.54,1.54c2.63,0,4.82-.88,4.82-3.29,0-5.91-14-2.19-14-13.36,0-7,5.92-9.86,12.49-9.86A26.1,26.1,0,0,1,108.42,32Zm162.3,25.63c-9,0-15.34-4.82-15.34-16,0-9.86,6.57-17.09,16.21-17.09,9,0,14.68,5,14.68,15.78.22,10.29-6.14,17.3-15.55,17.3Zm.43-26.07c-3.72,0-7,2.63-7,9.64,0,6.13,2.19,9.42,7,9.42,3.95,0,7-3.29,7-9.64,0-6.13-2.19-9.42-7-9.42ZM163.18,62.86h8.1V31.1c-3.72-.44-8.1.66-8.1,6.57Zm4.6-35.7a5.14,5.14,0,0,0,5.25-5,5,5,0,0,0-5.25-4.82,5.06,5.06,0,0,0-5,4.82,5.1,5.1,0,0,0,5,5ZM243.34,63.3c-9.42,0-15.55-4.6-15.55-16,0-9.42,5.26-16.87,16.86-16.87a21.6,21.6,0,0,1,7.67,1.32l-1.75,6.57a17.4,17.4,0,0,0-5.7-1.1c-5.91,0-8.32,4-8.32,9.64s2.19,9.42,8.1,9.42A17.34,17.34,0,0,0,251,55l.87,6.57C250.35,62.64,246.85,63.3,243.34,63.3Z"/><path class="cls-1" d="M23.44,78.19c-.44-1.31-.66-2.63-1.1-4.16a34.25,34.25,0,0,0-2.85-8.76c-1.31-2.63-3.06-4.38-5.69-7-.22.44-.66.88-.88,1.32-.44.87-.87,1.75-1.31,2.84-.22.44-.22,1.1-.44,1.76,0,.65-.22,1.09-.22,1.75a7.45,7.45,0,0,0,.22,2.19,10,10,0,0,0,.66,2.41,17.94,17.94,0,0,0,1.53,2.84c0,.22.22.22.22.44A18.17,18.17,0,0,0,18,78.63a24.7,24.7,0,0,0,2.85,2.19A18.32,18.32,0,0,0,23,82.14a13.68,13.68,0,0,0,3.06,1.53c.22,0,.44.22.66.44A13,13,0,0,1,23.44,78.19Z"/><path class="cls-1" d="M33.07,19.27a9.57,9.57,0,0,1,1.54,1.32,9,9,0,0,0,1.53,1.31c.44.44,1.09.88,1.53,1.32,1.1.87,1.76,1.53,3.07,2.63.88.65,1.53,1.31,2.41,2S44.9,29.35,45.78,30l.44.43c2,1.54,4.16,3.07,6.13,4.82a58,58,0,0,1,5,4.17,20,20,0,0,0,.43-3.51,28.53,28.53,0,0,0,0-6.13,23.14,23.14,0,0,0-2.19-8.33,20.85,20.85,0,0,0-4.38-6.13l-.44-.44a32.65,32.65,0,0,0-3.28-2.41c-1.1-.65-2.41-1.31-3.72-2A19.13,19.13,0,0,0,37.23,9a25.08,25.08,0,0,0-4.16.22Z"/><path class="cls-1" d="M60,45.34c-2.41-2.41-5.47-4.82-9.41-8.11-2-1.53-4-3.06-6.14-4.59L44,32.2c-.87-.66-2-1.54-2.84-2.19a23,23,0,0,0-2.41-2c-1.32-1.1-2.19-1.76-3.29-2.63A9.46,9.46,0,0,0,34,24.09,6.25,6.25,0,0,0,32.64,23V94.4A11.19,11.19,0,0,0,35,94h.66c2.41-.43,4.82-1.09,7.23-1.75A50.27,50.27,0,0,0,49.06,90a29.35,29.35,0,0,0,5.26-2.63,42.69,42.69,0,0,0,6.13-4.16,23.27,23.27,0,0,0,5.48-5.91,21.1,21.1,0,0,0,3.5-7.45,16.61,16.61,0,0,0,.66-4.6A21.3,21.3,0,0,0,69.65,60a22.11,22.11,0,0,0-3.07-6.57A29.5,29.5,0,0,0,60,45.34Z"/><path class="cls-1" d="M25.41,11.17a3.87,3.87,0,0,1,.65.88,14.78,14.78,0,0,0,1.76,2h0l1.09,1.09.44.66.88.88V0a8.78,8.78,0,0,0-3.29.66A7.94,7.94,0,0,0,24.53,2,4.19,4.19,0,0,0,23,4.38a7.46,7.46,0,0,0,.66,4.16C24.09,9.2,24.75,10.29,25.41,11.17Z"/><path class="cls-1" d="M29.79,67.9c-.44-.22-.88-.22-1.1-.44C24.09,65.05,25.19,58.92,23,55c-2.85-5-12.71-6.57-10.95-13.8,1.09-5,8.1-4.16,10.73-7.67,1.31-1.75,1.75-3.94,2.63-5.69a6.15,6.15,0,0,1,4.82-3.73v-3.5l-.66-.66-.44-.44a15.91,15.91,0,0,1-2-2l-.44-.44L25.63,16a14.78,14.78,0,0,1-1.76-2c-.21-.44-.87-.88-.87-1.1a19,19,0,0,1-1.75-2.84c-2.85,2-7.67,5.69-10.74,8.1C7.45,20.81,0,26.94,0,34.61c0,8.76,8.32,14.23,12.92,18.83,4.6,4.38,6.79,6.57,9,10.3,2.19,3.94,3.07,9.85,4.16,13.58a14.65,14.65,0,0,0,4,6.57V68.12C30.23,67.9,30,67.9,29.79,67.9Z"/></g></g></svg>