<svg xmlns="http://www.w3.org/2000/svg" viewBox="0 0 359.56 359.56"><defs><style>.cls-1{fill:#fff;}.cls-2{fill:#67beec;}.cls-3{fill:#111c4e;}</style></defs><g id="Layer_2" data-name="Layer 2"><g id="Layer_1-2" data-name="Layer 1"><circle class="cls-1" cx="179.78" cy="179.78" r="175.78"/><path class="cls-2" d="M179.78,359.56C80.65,359.56,0,278.91,0,179.78S80.65,0,179.78,0,359.56,80.65,359.56,179.78,278.91,359.56,179.78,359.56ZM179.78,8C85.06,8,8,85.06,8,179.78S85.06,351.56,179.78,351.56,351.56,274.5,351.56,179.78,274.5,8,179.78,8Z"/><path class="cls-3" d="M271.18,241.4H88.38a16,16,0,0,1-15.93-15.94v-16a2,2,0,0,1,2-2H285.11a2,2,0,0,1,2,2v16A16,16,0,0,1,271.18,241.4Zm-194.73-30v14A11.94,11.94,0,0,0,88.38,237.4h182.8a11.94,11.94,0,0,0,11.93-11.94v-14Z"/><path class="cls-3" d="M285.11,211.42H74.45a2,2,0,0,1-2-2V104.12A16,16,0,0,1,88.38,88.19h182.8a16,16,0,0,1,15.93,15.93v105.3A2,2,0,0,1,285.11,211.42Zm-208.66-4H283.11V104.12a11.94,11.94,0,0,0-11.93-11.93H88.38a11.94,11.94,0,0,0-11.93,11.93Z"/><path class="cls-3" d="M218.05,271.37H141.51a2,2,0,0,1,0-4,8.51,8.51,0,0,0,8.5-8.5V239.4a2,2,0,0,1,2-2h55.54a2,2,0,0,1,2,2v19.47a8.51,8.51,0,0,0,8.5,8.5,2,2,0,0,1,0,4Zm-67.38-4h58.22a12.46,12.46,0,0,1-3.34-8.5V241.4H154v17.47A12.46,12.46,0,0,1,150.67,267.37Z"/><path class="cls-3" d="M238.53,104.25a2,2,0,0,1-1.42-3.42L247.5,90.45a2,2,0,1,1,2.83,2.83l-10.39,10.38A2,2,0,0,1,238.53,104.25Z"/><path class="cls-3" d="M88.13,211.42a2,2,0,0,1-1.42-.59,2,2,0,0,1,0-2.82l17.71-17.71a2,2,0,0,1,2.82,2.83l-17.7,17.7A2,2,0,0,1,88.13,211.42Z"/><path class="cls-3" d="M240.18,121.32a2,2,0,0,1-1.41-.58,2,2,0,0,1,0-2.83l29-29a2,2,0,0,1,2.83,2.83l-29,29A2,2,0,0,1,240.18,121.32Z"/><path class="cls-3" d="M111.31,173v-6.15l12.15-11a11.55,11.55,0,0,0,1.84-2.24,4.75,4.75,0,0,0,.71-2.55,3.59,3.59,0,0,0-1.06-2.7,4.25,4.25,0,0,0-5.83.27,5.85,5.85,0,0,0-1.39,3.41l-7.08-1a11.21,11.21,0,0,1,1.3-4.23,11.05,11.05,0,0,1,2.62-3.17,11.22,11.22,0,0,1,3.63-2,13.41,13.41,0,0,1,4.33-.69,15.34,15.34,0,0,1,4.18.57,11.14,11.14,0,0,1,3.61,1.76,8.77,8.77,0,0,1,2.53,3,9,9,0,0,1,1,4.22,9.78,9.78,0,0,1-.44,3,10.37,10.37,0,0,1-1.21,2.48,14.41,14.41,0,0,1-1.76,2.14c-.66.66-1.35,1.31-2,2l-7.22,6.43h12.72V173Z"/><path class="cls-3" d="M163.15,157.37a29.09,29.09,0,0,1-.66,6.29,16.2,16.2,0,0,1-2.11,5.26,11.22,11.22,0,0,1-18.82,0,15.8,15.8,0,0,1-2.13-5.26,30.21,30.21,0,0,1,0-12.56,15.33,15.33,0,0,1,2.13-5.19,10.9,10.9,0,0,1,3.81-3.55,12.62,12.62,0,0,1,11.24,0,10.86,10.86,0,0,1,3.77,3.55,15.72,15.72,0,0,1,2.11,5.19A28.84,28.84,0,0,1,163.15,157.37Zm-7.57,0a31.67,31.67,0,0,0-.18-3.21,16.28,16.28,0,0,0-.66-3.28,7.1,7.1,0,0,0-1.38-2.55,3.21,3.21,0,0,0-4.73,0,7,7,0,0,0-1.43,2.55,15,15,0,0,0-.69,3.28c-.11,1.17-.17,2.24-.17,3.21s.06,2.09.17,3.28a15.18,15.18,0,0,0,.69,3.3,7,7,0,0,0,1.43,2.55,3.23,3.23,0,0,0,4.73,0,7.1,7.1,0,0,0,1.38-2.55,16.48,16.48,0,0,0,.66-3.3A32.83,32.83,0,0,0,155.58,157.37Z"/><path class="cls-3" d="M191.57,157.37a29.09,29.09,0,0,1-.66,6.29,16,16,0,0,1-2.11,5.26,10.47,10.47,0,0,1-9.37,5,10.64,10.64,0,0,1-9.44-5,15.59,15.59,0,0,1-2.13-5.26,30.21,30.21,0,0,1,0-12.56,15.13,15.13,0,0,1,2.13-5.19,10.9,10.9,0,0,1,3.81-3.55,12.62,12.62,0,0,1,11.24,0,10.83,10.83,0,0,1,3.76,3.55,15.51,15.51,0,0,1,2.11,5.19A28.84,28.84,0,0,1,191.57,157.37Zm-7.57,0a31.47,31.47,0,0,0-.17-3.21,16.28,16.28,0,0,0-.66-3.28,7.11,7.11,0,0,0-1.39-2.55,3,3,0,0,0-2.35-1,3.06,3.06,0,0,0-2.38,1,7.33,7.33,0,0,0-1.43,2.55,15,15,0,0,0-.68,3.28,31.67,31.67,0,0,0-.18,3.21,32.83,32.83,0,0,0,.18,3.28,15.19,15.19,0,0,0,.68,3.3,7.33,7.33,0,0,0,1.43,2.55,3,3,0,0,0,2.38,1,3,3,0,0,0,2.35-1,7.11,7.11,0,0,0,1.39-2.55,16.48,16.48,0,0,0,.66-3.3A32.64,32.64,0,0,0,184,157.37Z"/><path class="cls-3" d="M220,157.37a29.09,29.09,0,0,1-.66,6.29,16,16,0,0,1-2.11,5.26,10.47,10.47,0,0,1-9.37,5,10.61,10.61,0,0,1-9.44-5,15.6,15.6,0,0,1-2.14-5.26,30.21,30.21,0,0,1,0-12.56,15.14,15.14,0,0,1,2.14-5.19,11,11,0,0,1,3.8-3.55,11.31,11.31,0,0,1,5.64-1.32,11.14,11.14,0,0,1,5.61,1.32,10.83,10.83,0,0,1,3.76,3.55,15.51,15.51,0,0,1,2.11,5.19A28.84,28.84,0,0,1,220,157.37Zm-7.57,0c0-1-.06-2-.17-3.21a16.28,16.28,0,0,0-.66-3.28,7.27,7.27,0,0,0-1.39-2.55,3,3,0,0,0-2.35-1,3.06,3.06,0,0,0-2.38,1,7.18,7.18,0,0,0-1.43,2.55,14.44,14.44,0,0,0-.68,3.28,31.67,31.67,0,0,0-.18,3.21,32.83,32.83,0,0,0,.18,3.28,14.62,14.62,0,0,0,.68,3.3,7.18,7.18,0,0,0,1.43,2.55,3,3,0,0,0,2.38,1,3,3,0,0,0,2.35-1A7.27,7.27,0,0,0,211.6,164a16.48,16.48,0,0,0,.66-3.3C212.37,159.46,212.43,158.37,212.43,157.37Z"/><path class="cls-3" d="M239.58,162.47v9.2h-5.72v-9.2h-9.37v-5.54h9.33v-9.2h5.72v9.2h9.37v5.54Z"/></g></g></svg>